<?xml version="1.0" encoding="utf-8"?>
<!-- Generator: Adobe Illustrator 24.2.1, SVG Export Plug-In . SVG Version: 6.00 Build 0)  -->
<svg version="1.1" id="Layer_1" xmlns="http://www.w3.org/2000/svg" xmlns:xlink="http://www.w3.org/1999/xlink" x="0px" y="0px"
	 viewBox="0 0 566.93 566.93" style="enable-background:new 0 0 566.93 566.93;" xml:space="preserve">
<style type="text/css">
	.st0{fill:url(#SVGID_1_);}
	.st1{fill:#AAA630;}
	.st2{fill:url(#SVGID_2_);}
	.st3{fill:url(#SVGID_3_);}
	.st4{fill:url(#SVGID_4_);}
	.st5{fill:none;stroke:#AAA630;stroke-width:1.5;stroke-linecap:round;stroke-linejoin:round;stroke-miterlimit:10;}
</style>
<g>
	<g>
		<linearGradient id="SVGID_1_" gradientUnits="userSpaceOnUse" x1="294.4926" y1="55.357" x2="294.4926" y2="535.4319">
			<stop  offset="0" style="stop-color:#AC2631"/>
			<stop  offset="1" style="stop-color:#5F1318"/>
		</linearGradient>
		<circle class="st0" cx="294.49" cy="295.39" r="240.04"/>
		<path class="st1" d="M294.49,536.34c-32.53,0-64.08-6.37-93.79-18.93c-28.69-12.14-54.46-29.51-76.59-51.64
			c-22.13-22.13-39.5-47.89-51.64-76.59c-12.56-29.71-18.93-61.26-18.93-93.79s6.37-64.08,18.93-93.79
			c12.14-28.69,29.51-54.46,51.64-76.59c22.13-22.13,47.9-39.5,76.59-51.64c29.71-12.56,61.26-18.94,93.79-18.94
			s64.08,6.37,93.79,18.94c28.69,12.14,54.46,29.51,76.59,51.64c22.13,22.13,39.5,47.9,51.64,76.59
			c12.56,29.71,18.93,61.26,18.93,93.79s-6.37,64.08-18.93,93.79c-12.14,28.69-29.51,54.46-51.64,76.59
			c-22.13,22.13-47.9,39.5-76.59,51.64C358.57,529.97,327.02,536.34,294.49,536.34z M294.49,56.26
			c-131.86,0-239.13,107.27-239.13,239.13s107.27,239.13,239.13,239.13s239.13-107.27,239.13-239.13S426.35,56.26,294.49,56.26z"/>
	</g>
	<g>
		<linearGradient id="SVGID_2_" gradientUnits="userSpaceOnUse" x1="294.4926" y1="102.6288" x2="294.4926" y2="488.1601">
			<stop  offset="0" style="stop-color:#AC2631"/>
			<stop  offset="1" style="stop-color:#5F1318"/>
		</linearGradient>
		<circle class="st2" cx="294.49" cy="295.39" r="192.77"/>
		<path class="st1" d="M294.49,489.07c-51.73,0-100.37-20.15-136.95-56.73c-36.58-36.58-56.73-85.22-56.73-136.95
			s20.15-100.37,56.73-136.95c36.58-36.58,85.22-56.73,136.95-56.73s100.37,20.15,136.95,56.73
			c36.58,36.58,56.73,85.22,56.73,136.95s-20.15,100.37-56.73,136.95C394.86,468.92,346.22,489.07,294.49,489.07z M294.49,103.54
			c-105.79,0-191.86,86.07-191.86,191.86c0,105.79,86.07,191.86,191.86,191.86c105.79,0,191.86-86.07,191.86-191.86
			C486.35,189.6,400.28,103.54,294.49,103.54z"/>
	</g>
	<g>
		<path class="st1" d="M342.88,273.36c-0.09,0-0.19-0.03-0.27-0.09c-0.2-0.15-0.24-0.43-0.1-0.63
			c18.68-25.34,25.89-65.6,28.65-94.91c2.99-31.79,1.54-57.92,1.52-58.18c-0.01-0.25,0.18-0.46,0.43-0.48
			c0.25-0.02,0.46,0.18,0.48,0.43c0.01,0.26,1.47,26.45-1.52,58.31c-2.77,29.43-10.02,69.87-28.83,95.38
			C343.16,273.3,343.02,273.36,342.88,273.36z"/>
		<path class="st1" d="M322.2,294.88c-0.18,0-0.34-0.1-0.42-0.27c-0.1-0.23,0.01-0.5,0.24-0.6c40.26-17.36,68.22-52.43,84.6-78.8
			c17.75-28.59,26.08-53.4,26.16-53.64c0.08-0.24,0.34-0.37,0.57-0.29c0.24,0.08,0.37,0.34,0.29,0.57
			c-0.08,0.25-8.44,25.14-26.24,53.82c-16.44,26.48-44.54,61.72-85.02,79.17C322.32,294.87,322.26,294.88,322.2,294.88z"/>
		<path class="st1" d="M311.65,309.57c-0.23,0-0.43-0.17-0.45-0.41c-0.03-0.25,0.16-0.47,0.4-0.5
			c67.16-6.99,107.68-29.25,129.84-46.69c24.01-18.89,32.24-36.36,32.33-36.54c0.1-0.23,0.37-0.33,0.6-0.22
			c0.23,0.11,0.33,0.37,0.22,0.6c-0.08,0.18-8.38,17.8-32.54,36.83c-14.17,11.16-30.95,20.63-49.88,28.13
			c-23.64,9.37-50.72,15.7-80.48,18.79C311.68,309.57,311.67,309.57,311.65,309.57z"/>
		<path class="st1" d="M372.48,334.63c-15.34,0-32.64-1.08-52.05-3.67c-0.25-0.03-0.42-0.26-0.39-0.51
			c0.03-0.25,0.26-0.43,0.51-0.39c66.96,8.95,108.63-0.16,131.78-9.38c25.07-9.98,34.45-22.23,34.54-22.36
			c0.15-0.2,0.43-0.24,0.63-0.09c0.2,0.15,0.24,0.43,0.09,0.63c-0.09,0.12-9.57,12.54-34.84,22.62
			C436.21,328.08,410.27,334.63,372.48,334.63z"/>
		<path class="st1" d="M419.36,374.26c-22.51,0-53.48-3.65-91.99-16.81c-0.24-0.08-0.36-0.34-0.28-0.58
			c0.08-0.24,0.34-0.36,0.58-0.28c50,17.09,87.24,18.09,109.67,15.93c24.3-2.35,36.95-8.82,37.08-8.88c0.22-0.12,0.5-0.03,0.61,0.19
			c0.12,0.22,0.03,0.5-0.19,0.61c-0.13,0.07-12.89,6.6-37.34,8.97C432.24,373.92,426.19,374.26,419.36,374.26z"/>
		<path class="st1" d="M427.53,425.04c-4.9,0-11.31-0.45-19-1.96c-17.4-3.41-45.17-13.1-78.63-39.87c-0.2-0.16-0.23-0.44-0.07-0.64
			c0.16-0.19,0.44-0.23,0.64-0.07c33.28,26.63,60.88,36.27,78.17,39.67c18.72,3.68,29.72,1.04,29.83,1.01
			c0.25-0.06,0.49,0.09,0.55,0.33c0.06,0.24-0.09,0.49-0.33,0.55C438.62,424.08,434.67,425.04,427.53,425.04z"/>
		<path class="st1" d="M385.94,465.75c-0.03,0-0.06,0-0.09-0.01c-0.11-0.02-10.99-2.33-23.54-10.09
			c-11.58-7.16-27.01-20.56-34.72-43.76c-0.08-0.24,0.05-0.49,0.29-0.57c0.24-0.08,0.49,0.05,0.57,0.29
			c7.63,22.93,22.88,36.19,34.33,43.27c12.41,7.67,23.14,9.95,23.24,9.97c0.25,0.05,0.4,0.29,0.35,0.54
			C386.34,465.61,386.15,465.75,385.94,465.75z"/>
		<path class="st1" d="M328.02,485.69c-0.09,0-0.18-0.03-0.26-0.08c-0.12-0.09-11.99-8.66-15.96-25.5
			c-0.06-0.24,0.09-0.49,0.34-0.55c0.24-0.06,0.49,0.09,0.55,0.34c3.9,16.5,15.49,24.89,15.61,24.97c0.2,0.14,0.25,0.43,0.11,0.63
			C328.3,485.62,328.16,485.69,328.02,485.69z"/>
	</g>
	<g>
		<linearGradient id="SVGID_3_" gradientUnits="userSpaceOnUse" x1="294.4926" y1="102.6288" x2="294.4926" y2="482.9167">
			<stop  offset="0" style="stop-color:#AC2631"/>
			<stop  offset="1" style="stop-color:#5F1318"/>
		</linearGradient>
		<path class="st3" d="M294.49,102.63c-55.94,55.94-54.85,144.31-54.85,144.31c0,30.24,24.6,54.85,54.85,54.85
			c30.24,0,54.85-24.6,54.85-54.85c0,0,0,0,0-0.01C349.34,246.42,350.27,158.4,294.49,102.63z"/>
		<path class="st1" d="M294.49,302.24c-30.49,0-55.3-24.81-55.3-55.3c0-0.22-0.2-22.48,6.46-51.28
			c6.14-26.6,19.55-64.38,48.52-93.35c0.18-0.18,0.46-0.18,0.64,0c28.9,28.9,42.31,66.58,48.46,93.09
			c6.7,28.86,6.53,50.62,6.52,51.54C349.79,277.43,324.99,302.24,294.49,302.24z M294.49,103.27
			c-28.59,28.77-41.86,66.19-47.95,92.57c-6.63,28.7-6.44,50.87-6.44,51.1c0,30,24.4,54.4,54.39,54.4s54.39-24.4,54.39-54.39
			c0.01-0.92,0.18-22.58-6.49-51.33C336.29,169.31,323.02,131.98,294.49,103.27z"/>
	</g>
	<g>
		<path class="st1" d="M246.11,273.2c-0.14,0-0.28-0.06-0.37-0.18c-18.81-25.51-26.06-65.95-28.83-95.38
			c-3-31.86-1.54-58.04-1.52-58.31c0.01-0.25,0.22-0.44,0.48-0.43c0.25,0.01,0.44,0.23,0.43,0.48c-0.02,0.26-1.47,26.39,1.52,58.18
			c2.76,29.31,9.97,69.57,28.65,94.91c0.15,0.2,0.11,0.49-0.1,0.63C246.29,273.17,246.2,273.2,246.11,273.2z"/>
		<path class="st1" d="M266.79,294.71c-0.06,0-0.12-0.01-0.18-0.04c-40.48-17.45-68.58-52.68-85.02-79.17
			c-17.81-28.68-26.16-53.57-26.24-53.82c-0.08-0.24,0.05-0.49,0.29-0.57c0.24-0.08,0.49,0.05,0.57,0.29
			c0.08,0.25,8.41,25.05,26.16,53.64c16.37,26.37,44.34,61.44,84.59,78.8c0.23,0.1,0.34,0.37,0.24,0.6
			C267.13,294.61,266.96,294.71,266.79,294.71z"/>
		<path class="st1" d="M277.34,309.4c-0.02,0-0.03,0-0.05,0c-29.76-3.1-56.84-9.42-80.48-18.79c-18.93-7.5-35.71-16.97-49.88-28.13
			c-24.15-19.03-32.45-36.65-32.53-36.83c-0.11-0.23-0.01-0.5,0.22-0.6c0.23-0.1,0.5,0,0.6,0.22c0.08,0.17,8.32,17.64,32.33,36.54
			c22.16,17.44,62.68,39.7,129.84,46.69c0.25,0.03,0.43,0.25,0.4,0.5C277.76,309.23,277.57,309.4,277.34,309.4z"/>
		<path class="st1" d="M216.51,334.46c-37.79,0-63.73-6.55-80.28-13.15c-25.27-10.08-34.75-22.5-34.84-22.62
			c-0.15-0.2-0.11-0.48,0.09-0.63c0.2-0.15,0.48-0.11,0.63,0.09c0.09,0.12,9.47,12.37,34.54,22.36
			c23.16,9.22,64.82,18.33,131.78,9.38c0.25-0.04,0.48,0.14,0.51,0.39c0.03,0.25-0.14,0.48-0.39,0.51
			C249.15,333.38,231.85,334.46,216.51,334.46z"/>
		<path class="st1" d="M169.66,374.02c-6.78,0-12.79-0.33-18.01-0.83c-24.53-2.35-37.36-8.86-37.49-8.92
			c-0.22-0.11-0.31-0.39-0.19-0.61c0.11-0.22,0.39-0.31,0.61-0.19c0.13,0.06,12.85,6.51,37.22,8.83
			c22.51,2.14,59.83,1.11,109.82-15.98c0.24-0.08,0.49,0.05,0.58,0.28c0.08,0.24-0.05,0.49-0.28,0.58
			C223.32,370.37,192.24,374.02,169.66,374.02z"/>
		<path class="st1" d="M161.17,424.81c-6.95,0-10.79-0.89-10.86-0.91c-0.24-0.06-0.39-0.3-0.33-0.55c0.06-0.24,0.3-0.39,0.55-0.33
			c0.11,0.03,11.22,2.6,30.04-1.15c17.39-3.46,45.1-13.18,78.38-39.81c0.2-0.16,0.48-0.12,0.64,0.07s0.12,0.48-0.07,0.64
			c-33.46,26.77-61.34,36.53-78.84,40.01C172.74,424.35,166.15,424.81,161.17,424.81z"/>
		<path class="st1" d="M203.05,465.59c-0.21,0-0.4-0.15-0.44-0.36c-0.05-0.25,0.11-0.48,0.35-0.54c0.11-0.02,10.86-2.31,23.27-9.99
			c11.44-7.08,26.68-20.33,34.3-43.25c0.08-0.24,0.34-0.37,0.57-0.29c0.24,0.08,0.37,0.34,0.29,0.57
			c-7.71,23.19-23.14,36.6-34.72,43.76c-12.55,7.76-23.43,10.06-23.54,10.09C203.11,465.58,203.08,465.59,203.05,465.59z"/>
		<path class="st1" d="M259.93,485.52c-0.12,0-0.24-0.05-0.33-0.14c-0.17-0.18-0.17-0.47,0.01-0.64
			c0.11-0.1,10.83-10.53,14.24-27.37c0.05-0.25,0.29-0.4,0.54-0.35c0.25,0.05,0.4,0.29,0.35,0.54
			c-3.47,17.13-14.4,27.74-14.51,27.85C260.15,485.48,260.04,485.52,259.93,485.52z"/>
	</g>
	<g>
		<g>
			<linearGradient id="SVGID_4_" gradientUnits="userSpaceOnUse" x1="294.5267" y1="110.7719" x2="294.5267" y2="480.8098">
				<stop  offset="0.2407" style="stop-color:#AC2631"/>
				<stop  offset="1" style="stop-color:#5F1318"/>
			</linearGradient>
			<path class="st4" d="M272.46,247.27c2.03,0.38,3.96,1.04,5.74,1.94c-4.67,3.55-10.49,5.67-16.8,5.67c-3.04,0-5.96-0.49-8.69-1.4
				c0.76-0.78,1.57-1.5,2.44-2.16c3.28-2.48,7.28-4.06,11.63-4.37c1.25,0.26,2.54,0.41,3.87,0.41
				C271.27,247.36,271.87,247.33,272.46,247.27z M294.25,488.16C294.25,488.16,294.25,488.16,294.25,488.16
				C294.25,488.16,294.25,488.16,294.25,488.16C294.25,488.16,294.25,488.16,294.25,488.16
				C294.25,488.16,294.25,488.16,294.25,488.16C294.25,488.16,294.25,488.16,294.25,488.16z M294.25,488.16
				C294.25,488.16,294.25,488.16,294.25,488.16L294.25,488.16C294.25,488.16,294.25,488.16,294.25,488.16z M246.12,248.4v-0.28
				c0-0.06,0-0.12,0-0.18C246.12,248.09,246.12,248.24,246.12,248.4z M266.79,246.95c-0.01,0-0.03-0.01-0.04-0.01
				c-4.58-0.99-8.53-3.67-11.16-7.36c-1.57-2.21-2.67-4.78-3.15-7.56c-0.18-1.02-0.27-2.08-0.27-3.16c0-4.09,1.33-7.87,3.58-10.93
				c-6.05,8.08-9.64,18.13-9.64,29v0.02c0,0.26,0,0.52,0.01,0.78c0,0.07,0,0.14,0,0.2c0,0.06,0,0.12,0,0.18
				c0.01,0.75,0.05,1.5,0.1,2.24c0,0.04,0,0.07,0,0.11c0.05,0.68,0.11,1.36,0.19,2.03c0.12,1.04,0.27,2.06,0.45,3.08
				c0.31,1.7,0.7,3.36,1.18,5c0.73-1.8,1.7-3.47,2.85-5c0.56-0.73,1.17-1.43,1.81-2.09c0.76-0.78,1.57-1.5,2.44-2.16
				C258.44,248.84,262.44,247.26,266.79,246.95z M342.82,252.06c0-0.04,0-0.09-0.01-0.13c-0.01-0.23-0.04-0.45-0.06-0.68
				c-0.13-1.46-0.32-2.9-0.57-4.32c-1.15-6.37-3.55-12.29-6.92-17.53c-0.34-0.53-0.7-1.07-1.07-1.59
				c-7.97-11.34-20.71-19.1-35.3-20.37c-1.4-0.12-2.82-0.19-4.25-0.19c-1.44,0-2.85,0.07-4.26,0.19c-2.72,0.29-5.35,0.86-7.87,1.67
				c-1.97,0.63-3.87,1.4-5.69,2.32c0,0-7.63,2.97-13.86,11.64c1.76-2.33,4.56-3.84,7.7-3.84c0,0,8.22-0.29,14.86,6.41
				c1.27,1.28,2.48,2.82,3.57,4.66c5.25,8.9,7.54,24.95-0.82,53.87c-0.01,0.05-0.03,0.11-0.05,0.17c-0.16,0.56-0.33,1.14-0.52,1.73
				c-0.78,2.51-1.79,5.28-3.08,8.28c-0.07,0.17-0.15,0.34-0.22,0.51c-0.97,2.23-2.11,4.59-3.42,7.07c0,0-0.1,0.19-0.29,0.54
				c-24,44.15-28.31,96.51-10.98,143.68c6.3,17.14,14.31,31.79,24.54,42.02c0,0,0,0,0,0c-7.92-26.88-10.03-82.06,10.2-116.29
				c16.2-27.41,28.72-60.63,34.66-87.33c2.19-9.82,3.49-18.76,3.75-26.19c0-0.05,0.01-0.11,0.01-0.17c0.05-0.86,0.07-1.73,0.07-2.6
				C342.95,254.39,342.9,253.22,342.82,252.06z M294.64,207.22c-1.44,0-2.86,0.08-4.26,0.23c1.41-0.12,2.82-0.19,4.26-0.19
				c1.43,0,2.85,0.07,4.25,0.19C297.49,207.3,296.07,207.22,294.64,207.22z M289.09,230.3c-0.16,2.11-0.67,4.13-1.48,5.98
				c-2.35,5.37-7.18,9.41-13.04,10.67c-0.69,0.15-1.39,0.26-2.11,0.33c2.03,0.38,3.96,1.04,5.74,1.94c3.01,1.51,5.64,3.7,7.66,6.36
				c2.8,3.68,4.46,8.27,4.46,13.26c0,0.1,0,0.2,0,0.31c0.1,1.14,0.39,6.4-2.05,15.03C296.63,255.25,294.33,239.2,289.09,230.3z
				 M333.71,218.48c-8.8-12.1-23.07-19.97-39.18-19.97c-7.07,0-13.78,1.52-19.83,4.24c-7.34,3.3-13.7,8.37-18.56,14.67
				c-0.13,0.17-0.26,0.34-0.39,0.51c-2.25,3.06-3.58,6.84-3.58,10.93c0,1.08,0.1,2.13,0.27,3.16c0.48,2.78,1.58,5.35,3.15,7.56
				c2.63,3.69,6.58,6.37,11.16,7.36c0.01,0,0.02,0,0.04,0.01c1.25,0.26,2.54,0.41,3.87,0.41c0.61,0,1.21-0.03,1.8-0.09
				c0.72-0.07,1.42-0.18,2.11-0.33c5.86-1.26,10.69-5.3,13.04-10.67c0.81-1.85,1.32-3.87,1.48-5.98c-1.08-1.84-2.3-3.38-3.57-4.66
				c-6.64-6.7-14.86-6.41-14.86-6.41c-3.15,0-5.94,1.51-7.7,3.84c6.23-8.67,13.86-11.64,13.86-11.64c1.82-0.92,3.73-1.69,5.69-2.32
				c2.53-0.81,5.15-1.38,7.87-1.67c1.4-0.15,2.82-0.23,4.26-0.23c1.44,0,2.86,0.08,4.25,0.23c14.59,1.27,27.32,9.03,35.3,20.37
				l0.08-7.01v-0.56C334.27,219.62,334.08,219,333.71,218.48z M273.42,226.38c0-3.19-2.59-5.78-5.78-5.78
				c-1.83,0-3.52,0.84-4.62,2.31c-0.76,1.01-1.16,2.21-1.16,3.47c0,3.19,2.59,5.78,5.78,5.78
				C270.82,232.16,273.42,229.57,273.42,226.38z"/>
			<path class="st1" d="M294.25,489.07c-0.23,0-0.46-0.09-0.64-0.27c-0.01-0.01-0.01-0.01-0.02-0.02
				c-9.63-9.64-17.95-23.88-24.73-42.33c-17.3-47.07-13.28-99.71,11.03-144.42l0.29-0.54c1.25-2.37,2.39-4.73,3.39-7l0.22-0.5
				c1.19-2.77,2.22-5.52,3.05-8.19c0.18-0.58,0.35-1.15,0.51-1.71c0,0,0.01-0.05,0.03-0.09c0-0.01,0.01-0.04,0.02-0.06c0,0,0,0,0,0
				c2.42-8.56,2.11-13.75,2.02-14.7c0-0.03,0-0.05,0-0.08l0-0.31c0-4.64-1.48-9.04-4.28-12.71c-1.83-2.41-4.19-4.42-6.85-5.84
				c-4.93,3.6-10.76,5.51-16.89,5.51c-2.86,0-5.69-0.43-8.42-1.27c-0.5,0.53-0.94,1.06-1.35,1.6c-1.11,1.47-2.03,3.08-2.73,4.79
				c-0.15,0.36-0.49,0.58-0.89,0.56c-0.39-0.02-0.72-0.28-0.82-0.65c-0.48-1.66-0.89-3.38-1.2-5.09c-0.18-1.03-0.34-2.09-0.46-3.14
				c-0.08-0.69-0.14-1.38-0.19-2.06c0-0.02-0.01-0.08-0.01-0.14c-0.05-0.63-0.08-1.26-0.09-1.87c0-0.03-0.01-0.07-0.01-0.1
				c-0.01-0.16-0.01-0.32-0.01-0.49l-0.01-0.28c0-0.23-0.01-0.47-0.01-0.7c0-10.77,3.4-20.98,9.82-29.57
				c0.01-0.01,0.01-0.02,0.02-0.03l0.38-0.49c4.96-6.44,11.5-11.61,18.9-14.94c6.38-2.87,13.17-4.32,20.2-4.32
				c15.73,0,30.65,7.6,39.91,20.34c0,0,0,0,0,0c0.47,0.65,0.74,1.47,0.74,2.3v0.56l-0.08,6.73c0.32,0.46,0.62,0.92,0.92,1.38
				c3.52,5.46,5.9,11.47,7.05,17.86c0.26,1.43,0.45,2.91,0.58,4.4c0.02,0.23,0.05,0.46,0.06,0.7c0,0,0,0.06,0,0.07l-0.9,0.11
				l0.9-0.06c0.09,1.24,0.13,2.41,0.13,3.57c0,0.89-0.02,1.78-0.07,2.65l-0.01,0.19c-0.26,7.39-1.53,16.26-3.77,26.32
				c-6.44,28.91-19.43,61.66-34.76,87.59c-20.11,34.02-17.92,89.08-10.11,115.58c0.08,0.27,0.03,0.57-0.14,0.8
				c-0.15,0.2-0.37,0.32-0.61,0.36C294.34,489.06,294.29,489.07,294.25,489.07z M290.05,230.16c6.51,11.39,6.2,29.65-0.91,54.26
				l-0.02,0.07c0,0.02-0.02,0.08-0.03,0.1c-0.16,0.57-0.33,1.15-0.52,1.75c-0.85,2.73-1.9,5.54-3.11,8.37l-0.22,0.51
				c-1.01,2.32-2.17,4.71-3.45,7.13l-0.29,0.55c-24.06,44.26-28.04,96.36-10.93,142.94c6.1,16.61,13.45,29.74,21.86,39.09
				c-7.09-27.91-8.29-80.47,11.25-113.52c15.24-25.78,28.16-58.33,34.55-87.07c2.22-9.96,3.47-18.71,3.73-26.03l0.02-0.21
				c0.04-0.81,0.06-1.67,0.06-2.52c0-1.12-0.04-2.24-0.12-3.43c0-0.03,0-0.07-0.01-0.1c-0.02-0.26-0.04-0.47-0.06-0.68
				c-0.13-1.45-0.32-2.88-0.56-4.26c-1.11-6.15-3.4-11.94-6.79-17.2c-0.34-0.53-0.69-1.05-1.05-1.56c-0.02-0.03-0.05-0.07-0.07-0.1
				c-7.79-11.03-19.79-18.16-33.09-19.74c-0.49-0.06-0.98-0.11-1.46-0.15c0,0,0,0,0,0c-1.32-0.12-2.62-0.18-3.89-0.19
				c-1.47-0.01-2.92,0.05-4.46,0.19c-2.54,0.27-5.1,0.81-7.62,1.61c-0.02,0.01-0.04,0.01-0.06,0.02c-1.94,0.62-3.81,1.38-5.56,2.26
				c-0.03,0.01-0.05,0.02-0.08,0.03c-0.06,0.02-4.45,1.79-9.2,6.39c0.87-0.23,1.78-0.35,2.71-0.35c0.32-0.01,8.66-0.22,15.51,6.68
				c1.4,1.42,2.65,3.05,3.7,4.84c0,0,0,0,0,0C289.93,229.94,289.99,230.05,290.05,230.16z M276.35,247.41
				c0.77,0.29,1.52,0.62,2.26,0.99c3.1,1.55,5.86,3.84,7.97,6.62c2.87,3.77,4.46,8.24,4.63,12.97c1.13-6.18,1.7-11.81,1.7-16.88
				c0-7.1-1.11-13.09-3.34-17.93c-0.27,1.19-0.65,2.34-1.14,3.46C286.16,241.83,281.71,245.77,276.35,247.41z M247.03,248.18
				c0.02,0.71,0.05,1.41,0.1,2.11c0,0.02,0,0.04,0,0.07c0.05,0.7,0.11,1.37,0.19,2.03c0.12,1.01,0.26,2.03,0.44,3.02
				c0.15,0.84,0.33,1.69,0.53,2.53c0.55-1.02,1.18-1.99,1.88-2.92c0.56-0.73,1.17-1.45,1.88-2.17l0,0c0,0,0,0,0,0
				c0.8-0.82,1.64-1.56,2.48-2.2c0.02-0.02,0.04-0.03,0.06-0.05c2.48-1.88,5.3-3.21,8.29-3.95c-3.2-1.39-5.98-3.64-8.04-6.54
				c-1.67-2.35-2.82-5.09-3.31-7.93c-0.19-1.1-0.29-2.21-0.29-3.31c0-0.6,0.03-1.2,0.08-1.8c-2.85,6.18-4.33,12.91-4.33,19.87
				c0,0.25,0,0.47,0.01,0.7l0.01,0.26c0,0.01,0,0.03,0,0.04c0,0.02,0,0.05,0,0.07c0,0.01,0,0.03,0,0.04c0,0.02,0,0.05,0,0.07V248.18
				z M254.47,253.06c2.26,0.6,4.58,0.91,6.93,0.91c5.41,0,10.57-1.58,15-4.58c-1.27-0.53-2.59-0.92-3.93-1.19
				c-0.02,0-0.04-0.01-0.05-0.01c-0.56,0.05-1.13,0.08-1.7,0.08c-1.32,0-2.67-0.13-3.99-0.4c-4.01,0.31-7.82,1.76-11.03,4.18
				C255.29,252.36,254.88,252.7,254.47,253.06z M266.99,246.07c1.78,0.37,3.58,0.48,5.38,0.3c0,0,0,0,0.01,0
				c0.62-0.06,1.24-0.15,1.9-0.29c0.03-0.01,0.07-0.01,0.11-0.02c5.49-1.18,10.13-4.97,12.39-10.14c0.75-1.71,1.21-3.52,1.39-5.4
				c-0.87-1.44-1.87-2.75-2.98-3.93c-0.02-0.02-0.04-0.04-0.06-0.06c-0.08-0.08-0.16-0.17-0.24-0.25
				c-6.26-6.32-14.12-6.15-14.19-6.14c-0.2,0-0.4,0.01-0.6,0.02c2.48,0.98,4.24,3.4,4.24,6.23c0,3.69-3,6.69-6.69,6.69
				c-3.69,0-6.69-3-6.69-6.69c0-1.46,0.46-2.85,1.34-4.02c0.16-0.22,0.34-0.42,0.52-0.61c6.02-7.95,12.97-10.88,13.64-11.15
				c1.83-0.92,3.78-1.71,5.79-2.35c2.66-0.85,5.37-1.42,8.05-1.71c0,0,0,0,0,0c0.16-0.02,0.32-0.03,0.47-0.05
				c1.16-0.11,2.34-0.17,3.5-0.18c0.13,0,0.25,0,0.38,0c1.45,0,2.91,0.08,4.34,0.23c0.18,0.02,0.37,0.03,0.55,0.05
				c13.34,1.31,25.49,8,33.79,18.53l0.05-4.88c0-0.45-0.14-0.88-0.39-1.23c-8.93-12.27-23.3-19.59-38.45-19.59
				c-6.77,0-13.32,1.4-19.46,4.16c-7.13,3.21-13.43,8.19-18.21,14.39l-0.39,0.5c-2.18,2.98-3.35,6.5-3.39,10.19
				c0,0.06,0,0.12,0,0.18c0,0.01,0,0.01,0,0.02c0,0.99,0.09,2,0.26,3c0.45,2.61,1.46,5.03,3,7.19c2.56,3.59,6.33,6.07,10.61,7v0
				C266.96,246.06,266.98,246.06,266.99,246.07z M263.49,223.8c-0.48,0.77-0.74,1.65-0.74,2.58c0,2.69,2.19,4.88,4.88,4.88
				c2.69,0,4.88-2.19,4.88-4.88c0-2.69-2.19-4.88-4.88-4.88c-1.08,0-2.1,0.35-2.94,0.98c-0.37,0.34-0.71,0.72-1.02,1.13
				C263.63,223.69,263.56,223.75,263.49,223.8z"/>
		</g>
		<path class="st1" d="M294.26,489.07c-0.21,0-0.42-0.07-0.59-0.22c-0.38-0.33-0.42-0.9-0.09-1.28c0.14-0.16,14.14-16.47,24.5-43.13
			c9.55-24.57,17.86-63.21,3.27-107.79c-0.16-0.48,0.1-0.99,0.58-1.14c0.48-0.16,0.99,0.1,1.14,0.58c6.52,19.92,9.1,40.35,7.67,60.7
			c-1.15,16.28-4.85,32.56-11,48.37c-10.48,26.93-24.65,43.43-24.79,43.6C294.76,488.96,294.51,489.07,294.26,489.07z"/>
	</g>
	<g>
		<path class="st1" d="M294.49,488.61c-0.13,0-0.26-0.06-0.35-0.17c-35.99-44.16-32.71-114.65-9.03-154.63
			c24.91-42.04,27.81-74.03,25.87-93.46c-2.11-21.04-10.2-32.29-10.28-32.4c-0.15-0.2-0.1-0.49,0.1-0.63c0.2-0.15,0.49-0.1,0.63,0.1
			c0.08,0.11,8.3,11.52,10.45,32.78c1.98,19.58-0.93,51.79-25.98,94.08c-23.53,39.72-26.8,109.73,8.95,153.6
			c0.16,0.19,0.13,0.48-0.06,0.64C294.7,488.58,294.59,488.61,294.49,488.61z"/>
		<path class="st1" d="M294.49,488.61c-0.16,0-0.31-0.08-0.4-0.23c-16.89-29.92-22.84-58.23-18.2-86.55
			c4-24.41,14.95-45,26.78-65.69c21.72-37.98,26.95-67.7,27.51-85.94c0.61-19.76-3.97-30.68-4.01-30.79c-0.1-0.23,0.01-0.5,0.24-0.6
			c0.23-0.1,0.5,0.01,0.6,0.24c0.05,0.11,4.69,11.17,4.09,31.1c-0.56,18.36-5.8,48.26-27.63,86.44
			c-19.96,34.91-47.31,82.73-8.57,151.35c0.12,0.22,0.05,0.49-0.17,0.62C294.65,488.59,294.57,488.61,294.49,488.61z"/>
		<path class="st1" d="M294.49,488.61c-0.05,0-0.1-0.01-0.14-0.02c-0.23-0.08-0.36-0.32-0.29-0.55c0.13-0.48,12.93-48.77,1.7-97.63
			c-0.06-0.24,0.1-0.49,0.34-0.54c0.25-0.06,0.49,0.1,0.54,0.34c8.73,37.95,3.02,75.55-0.08,90.88
			c6.54-19.12,23.15-74.38,14.65-120.59c-0.05-0.25,0.12-0.48,0.36-0.53c0.25-0.05,0.48,0.12,0.53,0.36
			c10.46,56.86-16.91,127.28-17.18,127.99C294.84,488.5,294.67,488.61,294.49,488.61z"/>
	</g>
	<g>
		<path class="st1" d="M73.2,251.8l0.04,1.1l16.78-7.61l-14.4-3.11l-0.63,1.38l-0.23-0.05l1.1-5.09l0.23,0.05l0,1.24l18.74,4.04
			l0.48-1.23l0.23,0.05l-1.01,4.69l-0.23-0.05l0.01-1.03l-0.06-0.01L77.11,254l14.75,3.18l0.57-1.36l0.23,0.05l-1.12,5.18L91.31,261
			l0.07-1.32l-18.77-4.05l-0.48,1.11l-0.23-0.05l1.07-4.95L73.2,251.8z"/>
		<path class="st1" d="M79.26,227.22l1.91-5.76l0.22,0.07l-0.14,1.26l20.36-0.49l0.54-0.97l0.22,0.07l-1.68,5.08l-0.22-0.07
			l0.23-1.45l-5.53,0.13l-2.54,7.67l4.34,3.37l0.79-1.55l0.22,0.07l-1.76,5.31L96,239.9l0.18-1.22l-16.01-12.53l-0.69,1.14
			L79.26,227.22z M82.98,225.31l7.77,6l2.05-6.18L82.98,225.31z"/>
		<path class="st1" d="M83.15,212.83l1.01,0.21l6.06-14.04l-0.83-0.62l0.09-0.22l3.99,1.72l-0.09,0.22l-1.02-0.18l-2.5,5.79
			l15.92,6.87l0.73-1.17l0.22,0.09l-2.16,5l-0.22-0.09l0.36-1.36l-15.92-6.87l-2.5,5.79l0.84,0.59l-0.09,0.22l-3.99-1.72
			L83.15,212.83z"/>
		<path class="st1" d="M111.89,199.88l0.78-1.06l0.21,0.11l-2.44,4.73l-0.21-0.11l0.41-1.25l-17.07-8.8l-0.75,0.94l-0.21-0.11
			l2.35-4.55l0.21,0.11l-0.35,1.19L111.89,199.88z"/>
		<path class="st1" d="M121.62,179.35c0.72,2.65,0.32,5.19-1.21,7.65c-1.54,2.46-3.66,3.96-6.35,4.48s-5.31-0.04-7.87-1.63
			c-2.56-1.6-4.21-3.71-4.95-6.37c-0.75-2.66-0.33-5.23,1.2-7.69c1.52-2.43,3.64-3.94,6.36-4.44c2.72-0.5,5.35,0.03,7.92,1.62
			C119.24,174.56,120.87,176.69,121.62,179.35z M113.63,188.81c2.09-0.27,3.67-1.3,4.77-3.06c1.08-1.73,1.3-3.59,0.62-5.58
			c-0.68-1.99-1.95-3.59-3.83-4.76c-1.91-1.19-3.93-1.65-6.01-1.38c-2.09,0.27-3.68,1.26-4.76,2.99c-1.08,1.73-1.29,3.63-0.61,5.62
			c0.68,1.99,1.97,3.6,3.88,4.79C109.56,188.61,111.54,189.07,113.63,188.81z"/>
		<path class="st1" d="M115.09,158.74l-0.45,1l18.41,0.59l-11.55-9.16l-1.17,0.96l-0.19-0.15l3.24-4.08l0.19,0.15l-0.55,1.12
			l15.02,11.91l0.97-0.89l0.19,0.15l-2.98,3.76l-0.19-0.15l0.46-0.92l-0.05-0.04l-18.83-0.54l11.82,9.38l1.11-0.97l0.19,0.15
			l-3.29,4.15l-0.19-0.15l0.65-1.15l-15.05-11.93l-0.92,0.78l-0.19-0.15l3.14-3.96L115.09,158.74z"/>
		<path class="st1" d="M131.38,139.37l4.25-4.33l0.17,0.17l-0.68,1.07l18.49,8.54l0.91-0.64l0.17,0.17l-3.75,3.82l-0.17-0.17
			l0.85-1.2l-5.02-2.32l-5.66,5.76l2.41,4.94l1.39-1.04l0.17,0.17l-3.92,3.99l-0.17-0.17l0.7-1.01l-8.85-18.31l-1.12,0.72
			L131.38,139.37z M135.56,139.29l4.33,8.81l4.56-4.64L135.56,139.29z"/>
		<path class="st1" d="M147.19,124.98l11.14,13.24l7.61-6.4l-0.61-1.15l0.18-0.15l3.07,3.65l-0.18,0.15l-0.95-0.71l-10.69,8.99
			l-0.13-0.16l0.84-1.02l-12.36-14.69l-1.06,0.58l-0.15-0.18l3.94-3.31l0.15,0.18L147.19,124.98z"/>
		<path class="st1" d="M170.56,105.37l0.7,0.75l13.09-7.92l-0.32-0.98l0.2-0.12l2.25,3.72l-0.2,0.12l-0.72-0.74l-5.39,3.26
			l8.98,14.84l1.27-0.53l0.12,0.2l-4.66,2.82l-0.12-0.2l1.08-0.9l-8.98-14.83l-5.39,3.26l0.34,0.97l-0.2,0.12l-2.25-3.72
			L170.56,105.37z"/>
		<path class="st1" d="M202.6,111.42l-4.8,2.31l-0.1-0.21l1.08-0.75l-8.34-17.3l-1.17,0.3l-0.1-0.21l8.58-4.14
			c3.81-1.84,6.98-1.33,8.74,2.32c1.37,2.85,0.56,5.25-1.44,7.03l7.76,5.19l1.09-0.26l0.1,0.21l-5.14,2.48l-0.1-0.21l1.24-0.9
			l-7.39-4.91l-4.72,2.27l3.34,6.93l1.26-0.38L202.6,111.42z M193.71,95.96l3.17,6.58l5.3-2.56c2.24-1.08,2.9-2.84,1.82-5.08
			c-0.98-2.03-2.81-2.56-4.83-1.58L193.71,95.96z"/>
		<path class="st1" d="M214.73,84.18l5.7-2.07l0.08,0.22L219.43,83l12.99,15.68l1.1-0.18l0.08,0.22l-5.03,1.83l-0.08-0.22l1.28-0.72
			l-3.53-4.26l-7.59,2.75l0.04,5.49l1.7-0.33l0.08,0.22l-5.26,1.91l-0.08-0.22l1.07-0.61l-0.07-20.34l-1.32,0.17L214.73,84.18z
			 M218.54,85.91l0.1,9.82l6.12-2.22L218.54,85.91z"/>
		<path class="st1" d="M236.44,77.43l-0.97,0.51l14.19,11.75l-3.51-14.31l-1.51,0.04l-0.06-0.23l5.06-1.24l0.06,0.23l-1.12,0.55
			l4.57,18.62l1.31-0.11l0.06,0.23l-4.66,1.14l-0.06-0.23l0.93-0.44l-0.01-0.06l-14.55-11.97l3.6,14.66l1.47-0.09l0.06,0.23
			l-5.14,1.26l-0.06-0.23l1.22-0.51l-4.58-18.65l-1.21,0.05l-0.06-0.23l4.92-1.21L236.44,77.43z"/>
		<path class="st1" d="M258.88,91.37l-0.15,1.33l-0.23,0.03l-0.88-6.42l0.23-0.03l0.78,1.98c1.7,1.32,4.5,2.07,7.05,1.72
			c3.19-0.44,5.2-1.91,4.93-3.9c-0.16-1.17-0.83-1.95-2.08-2.34c-1.25-0.43-2.2-0.56-4.04-0.7c-0.87-0.06-1.57-0.11-2.12-0.19
			c-0.52-0.08-1.16-0.2-1.88-0.43c-1.99-0.59-3.14-1.78-3.63-4.46c-0.25-1.82,0.26-3.32,1.53-4.51c1.27-1.19,2.93-1.93,4.98-2.21
			c2.84-0.39,5-0.12,6.47,0.81l0.14-1.18l0.26-0.04l0.76,5.51l-0.26,0.04l-0.57-1.36c-1.49-1.26-3.89-1.82-6.27-1.5
			c-2.79,0.38-4.61,1.86-4.35,3.76c0.16,1.17,0.8,1.92,1.96,2.33c1.21,0.34,2.07,0.46,3.78,0.56c1.69,0.13,2.66,0.23,4.12,0.66
			c2.11,0.61,3.39,1.86,3.86,4.4c0.26,1.88-0.25,3.44-1.54,4.69c-1.27,1.22-3.07,2-5.39,2.32C263.15,92.7,260.67,92.41,258.88,91.37
			z"/>
		<path class="st1" d="M283.41,89.86l0.01,0.24l-5.32,0.23l-0.01-0.24l1.29-0.26l-0.83-19.19l-1.19-0.19l-0.01-0.24l14.28-0.61
			l0.22-1.05l0.24-0.01l0.2,4.73l-0.24,0.01l-0.35-1.35l-10.35,0.45l0.29,6.83l8.28-0.36l0.24-1.19l0.24-0.01l0.2,4.73l-0.24,0.01
			l-0.35-1.2l-8.28,0.36l0.35,8.13L283.41,89.86z"/>
		<path class="st1" d="M313.99,88.11c-1.98,1.9-4.4,2.76-7.29,2.59c-2.89-0.17-5.23-1.31-6.97-3.43c-1.74-2.12-2.51-4.68-2.33-7.69
			c0.18-3.01,1.24-5.47,3.22-7.4c1.98-1.93,4.43-2.79,7.33-2.62c2.86,0.17,5.2,1.31,6.94,3.46c1.74,2.15,2.54,4.71,2.36,7.73
			C317.06,83.73,315.97,86.18,313.99,88.11z M301.87,85.62c1.23,1.7,2.9,2.6,4.97,2.72c2.04,0.12,3.77-0.58,5.19-2.13
			c1.42-1.55,2.22-3.43,2.35-5.64c0.13-2.24-0.43-4.23-1.67-5.94c-1.23-1.7-2.87-2.63-4.91-2.75c-2.04-0.12-3.8,0.61-5.22,2.15
			c-1.42,1.55-2.22,3.46-2.35,5.7C300.1,81.96,300.63,83.92,301.87,85.62z"/>
		<path class="st1" d="M325.76,92.15l-5.25-0.88l0.04-0.23l1.32,0.01l3.18-18.94l-1.13-0.43l0.04-0.23l9.4,1.58
			c4.17,0.7,6.47,2.95,5.8,6.94c-0.52,3.12-2.57,4.61-5.24,4.91l3.34,8.72l1.04,0.41l-0.04,0.23l-5.63-0.95l0.04-0.23l1.53-0.01
			l-3.2-8.28l-5.17-0.87l-1.27,7.59l1.25,0.42L325.76,92.15z M327.42,74.4l-1.21,7.21l5.81,0.98c2.45,0.41,4.01-0.65,4.42-3.1
			c0.37-2.22-0.82-3.71-3.04-4.08L327.42,74.4z"/>
		<path class="st1" d="M352.12,77.29l-1.28-0.03l2.76,16.22l10.89-12.42l-0.84-0.4l0.07-0.23l4.86,1.42l-0.07,0.23l-1.23-0.11
			l-5.37,18.44l1.19,0.56l-0.07,0.23l-5.17-1.51l0.07-0.23l1.58,0.18l4.15-14.23l-11.42,12.64l-0.34-0.1l-2.97-16.34l-3.97,13.82
			l1.44,0.67l-0.07,0.23l-5.2-1.52l0.07-0.23l1.31,0.17l5.37-18.44l-1.07-0.56l0.07-0.23l5.31,1.55L352.12,77.29z"/>
		<path class="st1" d="M379.56,86.26l5.59,2.36l-0.09,0.22l-1.25-0.24l-1.14,20.33l0.93,0.62l-0.09,0.22l-4.93-2.08l0.09-0.22
			l1.43,0.35l0.31-5.52l-7.44-3.14l-3.71,4.06l1.48,0.91l-0.09,0.22l-5.15-2.18l0.09-0.22l1.2,0.28l13.77-14.96l-1.08-0.78
			L379.56,86.26z M381.17,90.12l-6.6,7.26l6,2.53L381.17,90.12z"/>
		<path class="st1" d="M393.59,91.28l-0.29,0.99l13.52,7.16l0.68-0.78l0.21,0.11l-2.04,3.84l-0.21-0.11l0.26-1l-5.57-2.95
			l-8.12,15.32l1.11,0.82l-0.11,0.21l-4.81-2.55l0.11-0.21l1.33,0.47l8.12-15.32l-5.57-2.95l-0.65,0.79l-0.21-0.11l2.04-3.84
			L393.59,91.28z"/>
		<path class="st1" d="M404.21,120.98l1,0.86l-0.13,0.2l-4.52-2.81l0.12-0.2l1.22,0.51l10.13-16.31l-0.88-0.83l0.12-0.2l4.35,2.7
			l-0.13,0.2l-1.16-0.44L404.21,120.98z"/>
		<path class="st1" d="M423.9,132.3c-2.7,0.51-5.2-0.09-7.53-1.82c-2.33-1.72-3.66-3.96-3.96-6.69c-0.3-2.73,0.46-5.29,2.25-7.72
			c1.8-2.43,4.03-3.9,6.74-4.43c2.71-0.53,5.24,0.08,7.57,1.81c2.31,1.71,3.64,3.94,3.92,6.69c0.28,2.75-0.45,5.33-2.25,7.76
			C428.87,130.3,426.61,131.76,423.9,132.3z M415.11,123.58c0.1,2.1,1.01,3.76,2.67,4.99c1.64,1.21,3.47,1.58,5.51,1.06
			c2.04-0.52,3.73-1.66,5.05-3.44c1.34-1.81,1.95-3.78,1.85-5.88c-0.1-2.1-0.96-3.77-2.61-4.98c-1.64-1.21-3.51-1.57-5.55-1.05
			c-2.04,0.52-3.75,1.68-5.08,3.49C415.63,119.55,415.01,121.48,415.11,123.58z"/>
		<path class="st1" d="M444.97,127.44l-0.96-0.53l-2.05,18.31L452,134.43l-0.86-1.25l0.16-0.17l3.81,3.55l-0.16,0.17l-1.07-0.63
			l-13.07,14.03l0.81,1.04l-0.16,0.17l-3.51-3.27l0.16-0.17l0.88,0.53l0.04-0.04l2.04-18.73l-10.28,11.04l0.88,1.18l-0.16,0.17
			l-3.88-3.61l0.16-0.17l1.09,0.74l13.09-14.05l-0.71-0.98l0.16-0.17l3.7,3.45L444.97,127.44z"/>
		<path class="st1" d="M456.87,168.89l-0.19,0.14l-3.23-4.23l0.19-0.14l0.96,0.91l15.26-11.66l-0.53-1.08l0.19-0.14l8.68,11.35
			l0.98-0.42l0.14,0.19l-3.76,2.87l-0.14-0.19l0.9-1.06l-6.29-8.23l-5.43,4.15l5.03,6.58l1.12-0.48l0.14,0.19l-3.76,2.88l-0.14-0.19
			l0.78-0.97l-5.03-6.58l-6.46,4.94L456.87,168.89z"/>
		<path class="st1" d="M475.78,192.96c-2.69-0.54-4.78-2.03-6.3-4.5c-1.52-2.47-1.91-5.04-1.17-7.68s2.41-4.74,4.98-6.31
			c2.57-1.58,5.2-2.11,7.91-1.59c2.71,0.52,4.83,2.04,6.34,4.51c1.5,2.45,1.89,5.02,1.13,7.67c-0.77,2.66-2.42,4.78-4.99,6.36
			C481.14,192.98,478.5,193.48,475.78,192.96z M470.9,181.59c-0.69,1.99-0.48,3.87,0.6,5.63c1.07,1.74,2.63,2.76,4.71,3.05
			c2.08,0.28,4.08-0.14,5.97-1.3c1.92-1.17,3.23-2.78,3.92-4.76c0.69-1.99,0.52-3.86-0.55-5.6c-1.07-1.74-2.67-2.77-4.75-3.06
			c-2.08-0.29-4.1,0.15-6.02,1.33C472.89,178.04,471.59,179.6,470.9,181.59z"/>
		<path class="st1" d="M479.18,204.94l-2.27-4.82l0.21-0.1l0.74,1.09l17.36-8.2l-0.29-1.17l0.21-0.1l4.07,8.62
			c1.81,3.83,1.27,6.99-2.39,8.72c-2.86,1.35-5.25,0.52-7.02-1.49l-5.26,7.72l0.25,1.09l-0.21,0.1l-2.44-5.16l0.21-0.1l0.89,1.25
			l4.97-7.35l-2.24-4.74l-6.96,3.29l0.37,1.27L479.18,204.94z M494.7,196.17l-6.61,3.12l2.51,5.32c1.06,2.25,2.82,2.92,5.07,1.86
			c2.03-0.96,2.58-2.79,1.62-4.82L494.7,196.17z"/>
		<path class="st1" d="M492.56,217.58l11.93-4.17l-0.18-1.22l0.22-0.08l1.69,4.83l-0.22,0.08l-0.62-1.07l-12.18,4.26
			c-3.1,1.09-3.85,3.6-2.78,6.65c1.07,3.04,3.19,4.56,6.29,3.47l12.2-4.27l-0.17-1.19l0.22-0.08l1.65,4.72l-0.22,0.08l-0.62-1.07
			l-11.95,4.18c-4.66,1.63-7.8,0.1-9.61-5.07C486.48,222.71,487.98,219.18,492.56,217.58z"/>
		<path class="st1" d="M513.52,241.37l-0.58-1.14l-12.92,10.19l16.12,3.62l-0.05-0.93l0.23-0.05l1.08,4.94l-0.23,0.05l-0.49-1.13
			l-18.76,4.1l0.08,1.32l-0.23,0.05l-1.15-5.26l0.23-0.05l0.6,1.47l14.48-3.17l-16.56-3.98l-0.08-0.35l12.92-10.43l-14.04,3.13
			l0.1,1.58l-0.23,0.05l-1.16-5.29l0.23-0.05l0.48,1.23l18.76-4.1l-0.02-1.21l0.23-0.05l1.18,5.41L513.52,241.37z"/>
	</g>
	<g>
		<path class="st5" d="M509.32,300.87"/>
		<path class="st1" d="M294.49,511.29c-56.66,0-110.16-21.83-150.64-61.46c-40.42-39.57-63.37-92.47-64.64-148.95
			c-0.01-0.25,0.19-0.46,0.44-0.46c0.26,0.01,0.46,0.19,0.46,0.44c2.6,115.53,98.76,209.52,214.37,209.52
			c58.08,0,115.31-24.76,157-67.93c38.78-40.15,59.15-90.43,57.37-141.56c-0.01-0.25,0.19-0.46,0.44-0.47
			c0.23,0,0.46,0.19,0.47,0.44c0.91,25.99-3.89,51.82-14.27,76.77c-9.96,23.95-24.54,45.97-43.36,65.45
			C410.28,486.43,352.82,511.29,294.49,511.29z"/>
		<path class="st5" d="M79.66,300.87"/>
		<path class="st1" d="M509.38,308.58c-4.6,0-8.34-3.74-8.34-8.34c0.01-0.27,0.44-6.28,7.93-24.22c0.07-0.17,0.24-0.28,0.42-0.28
			c0,0,0,0,0,0c0.18,0,0.35,0.11,0.42,0.28c7.62,18.64,7.93,24.18,7.92,24.22C517.72,304.83,513.98,308.58,509.38,308.58z
			 M509.37,277.38c-7.02,17.01-7.43,22.82-7.43,22.88c0,4.08,3.34,7.41,7.44,7.41s7.44-3.34,7.44-7.44
			C516.81,300.2,516.45,294.86,509.37,277.38z"/>
		<path class="st1" d="M79.61,308.58c-4.6,0-8.34-3.74-8.34-8.34c0.01-0.27,0.44-6.28,7.93-24.22c0.07-0.17,0.24-0.28,0.42-0.28
			c0,0,0,0,0,0c0.18,0,0.35,0.11,0.42,0.28c7.65,18.72,7.92,24.18,7.92,24.23C87.95,304.83,84.21,308.58,79.61,308.58z
			 M79.61,277.38c-7.02,17.01-7.43,22.82-7.43,22.88c0,4.08,3.34,7.41,7.44,7.41c4.1,0,7.44-3.34,7.44-7.44
			C87.04,300.2,86.69,294.87,79.61,277.38z"/>
	</g>
</g>
</svg>
